<svg xmlns="http://www.w3.org/2000/svg" xmlns:svg="http://www.w3.org/2000/svg" xmlns:xlink="http://www.w3.org/1999/xlink" id="svg2403" width="2000" height="750" x="0" y="0" enable-background="new 0 0 2000 750" version="1.1" viewBox="0 0 2000 750" xml:space="preserve"><g id="g2412" transform="matrix(1.25,0,0,-1.25,0,750)"><g id="g2414"><g id="g2416"><g id="g2422"><g id="g2424"><linearGradient id="path2432_1_" x1="550.943" x2="554.043" y1="-16.914" y2="-16.914" gradientTransform="matrix(90 0 0 -90 -49225.5977 -1256.1011)" gradientUnits="userSpaceOnUse"><stop offset="0" style="stop-color:#444"/><stop offset="1" style="stop-color:#000"/></linearGradient><path id="path2432" fill="url(#path2432_1_)" d="M359.293,280.162V252.27c0-4.702,101.439-12.576,167.528-27.893l0,0 c31.926,7.402,55.61,16.534,55.61,27.893l0,0v27.892c0,11.351-23.684,20.493-55.61,27.892l0,0 C460.732,292.735,359.293,284.859,359.293,280.162"/></g></g></g></g><g id="g2434"><g id="g2436"><g id="g2442"><g id="g2444"><linearGradient id="path2452_1_" x1="550.943" x2="554.043" y1="-17.754" y2="-17.754" gradientTransform="matrix(90 0 0 -90 -49225.5977 -1220.1011)" gradientUnits="userSpaceOnUse"><stop offset="0" style="stop-color:#444"/><stop offset="1" style="stop-color:#000"/></linearGradient><path id="path2452" fill="url(#path2452_1_)" d="M359.293,391.731v-27.893c0-4.702,101.439-12.576,167.528-27.892l0,0 c31.926,7.399,55.61,16.534,55.61,27.892l0,0v27.893c0,11.352-23.684,20.492-55.61,27.892l0,0 C460.732,404.304,359.293,396.428,359.293,391.731"/></g></g></g></g><g id="g2554"><g id="g2556"><g id="g2562"><g id="g2564"><linearGradient id="path2572_1_" x1="550.943" x2="554.043" y1="-17.334" y2="-17.334" gradientTransform="matrix(90 0 0 -90 -49225.5977 -1238.1011)" gradientUnits="userSpaceOnUse"><stop offset="0" style="stop-color:#a61214"/><stop offset="1" style="stop-color:#d82023"/></linearGradient><path id="path2572" fill="url(#path2572_1_)" d="M359.293,335.946V252.27c0,6.973,223.138,20.919,223.138,55.784l0,0v83.677 C582.431,356.866,359.293,342.92,359.293,335.946"/></g></g></g></g><g id="g2574"><g id="g2576"><g id="g2582"><g id="g2584"><linearGradient id="path2592_1_" x1="550.943" x2="554.043" y1="-18.174" y2="-18.174" gradientTransform="matrix(90 0 0 -90 -49225.5977 -1202.1011)" gradientUnits="userSpaceOnUse"><stop offset="0" style="stop-color:#a61214"/><stop offset="1" style="stop-color:#d82023"/></linearGradient><path id="path2592" fill="url(#path2592_1_)" d="M359.293,447.516v-83.677c0,6.973,223.138,20.92,223.138,55.785l0,0V503.3 C582.431,468.434,359.293,454.488,359.293,447.516"/></g></g></g></g><g id="g2694"><g id="g2696"><g id="g2702"><g id="g2704"><linearGradient id="path2712_1_" x1="550.943" x2="554.043" y1="-16.494" y2="-16.494" gradientTransform="matrix(90 0 0 -90 -49225.5977 -1274.1011)" gradientUnits="userSpaceOnUse"><stop offset="0" style="stop-color:#a61214"/><stop offset="1" style="stop-color:#d82023"/></linearGradient><path id="path2712" fill="url(#path2712_1_)" d="M359.293,224.377V140.7c0,6.973,223.138,20.92,223.138,55.784l0,0v83.677 C582.431,245.296,359.293,231.35,359.293,224.377"/></g></g></g></g></g></svg>